<?xml version="1.0" standalone="no"?><!-- Generator: Gravit.io --><svg xmlns="http://www.w3.org/2000/svg" xmlns:xlink="http://www.w3.org/1999/xlink" style="isolation:isolate" viewBox="0 0 565.694 281.174" width="565.694" height="281.174"><defs><clipPath id="_clipPath_QA789gaj2oMMY0h7MhIlyBKmfzkcgZ9o"><rect width="565.694" height="281.174"/></clipPath></defs><g clip-path="url(#_clipPath_QA789gaj2oMMY0h7MhIlyBKmfzkcgZ9o)"><g id="Group"><path d=" M 52.991 193.408 L 52.991 260.379 L 30.28 260.379 L 30.28 193.408 L 52.991 193.408 Z  M 234.673 193.408 L 234.673 260.379 L 257.383 260.379 L 257.383 193.408 L 234.673 193.408 Z " fill="rgb(239,108,0)"/><path d=" M 287.663 206.802 L 0 206.802 L 0 173.316 L 287.663 173.316 L 287.663 206.802 Z " fill="rgb(255,160,0)"/><path d=" M 30.28 19.282 L 75.701 19.282 L 75.701 173.316 L 30.28 173.316 L 30.28 19.282 Z " fill="rgb(37,97,227)"/><path d=" M 30.28 19.282 L 45.421 19.282 L 45.421 173.316 L 30.28 173.316 L 30.28 19.282 Z " fill="rgb(69,39,160)"/><path d=" M 90.841 19.282 L 136.262 19.282 L 136.262 173.316 L 90.841 173.316 L 90.841 19.282 Z " fill="rgb(76,175,80)"/><path d=" M 90.841 19.282 L 105.981 19.282 L 105.981 173.316 L 90.841 173.316 L 90.841 19.282 Z " fill="rgb(56,142,60)"/><path d=" M 136.262 59.465 L 181.682 59.465 L 181.682 173.316 L 136.262 173.316 L 136.262 59.465 Z " fill="rgb(244,67,54)"/><path d=" M 136.262 59.465 L 151.402 59.465 L 151.402 173.316 L 136.262 173.316 L 136.262 59.465 Z " fill="rgb(211,47,47)"/><path d=" M 75.701 52.768 L 30.28 52.768 L 30.28 39.374 L 75.701 39.374 L 75.701 52.768 Z  M 75.701 139.83 L 30.28 139.83 L 30.28 153.225 L 75.701 153.225 L 75.701 139.83 Z " fill="rgb(149,117,205)"/><path d=" M 45.421 52.768 L 30.28 52.768 L 30.28 39.374 L 45.421 39.374 L 45.421 52.768 Z  M 45.421 139.83 L 30.28 139.83 L 30.28 153.225 L 45.421 153.225 L 45.421 139.83 Z " fill="rgb(126,87,194)"/><path d=" M 136.262 52.768 L 90.841 52.768 L 90.841 39.374 L 136.262 39.374 L 136.262 52.768 Z  M 136.262 139.83 L 90.841 139.83 L 90.841 153.225 L 136.262 153.225 L 136.262 139.83 Z " fill="rgb(129,199,132)"/><path d=" M 105.981 52.768 L 90.841 52.768 L 90.841 39.374 L 105.981 39.374 L 105.981 52.768 Z  M 105.981 139.83 L 90.841 139.83 L 90.841 153.225 L 105.981 153.225 L 105.981 139.83 Z " fill="rgb(76,175,80)"/><path d=" M 181.682 92.951 L 136.262 92.951 L 136.262 79.556 L 181.682 79.556 L 181.682 92.951 Z  M 181.682 139.83 L 136.262 139.83 L 136.262 153.225 L 181.682 153.225 L 181.682 139.83 Z " fill="rgb(255,138,128)"/><path d=" M 151.402 92.951 L 136.262 92.951 L 136.262 79.556 L 151.402 79.556 L 151.402 92.951 Z  M 151.402 139.83 L 136.262 139.83 L 136.262 153.225 L 151.402 153.225 L 151.402 139.83 Z " fill="rgb(255,82,82)"/></g><path d=" M 315.142 227.217 L 315.142 227.217 L 315.142 164.651 L 315.142 164.651 Q 315.142 163.888 327.568 159.256 L 327.568 159.256 L 327.568 159.256 Q 339.994 154.623 341.847 154.623 L 341.847 154.623 L 341.847 154.623 Q 343.7 154.623 347.461 159.092 L 347.461 159.092 L 347.461 159.092 Q 351.221 163.561 351.221 167.158 L 351.221 167.158 L 351.221 195.716 L 356.562 195.716 L 356.562 198.332 L 351.221 201.057 L 351.221 222.203 L 351.221 222.203 Q 351.221 228.198 356.453 229.288 L 356.453 229.288 L 356.453 231.686 L 344.572 238.335 L 344.572 238.335 Q 342.174 237.354 340.103 235.12 L 340.103 235.12 L 340.103 235.12 Q 338.032 232.885 338.032 230.923 L 338.032 230.923 L 338.032 201.057 L 328.222 201.057 L 328.222 221.549 L 328.222 221.549 Q 328.222 225.582 329.094 227.326 L 329.094 227.326 L 329.094 227.326 Q 329.966 229.07 332.691 229.07 L 332.691 229.07 L 332.691 232.449 L 310.346 241.823 L 308.602 238.335 L 308.602 238.335 Q 311 238.335 313.18 235.501 L 313.18 235.501 L 313.18 235.501 Q 315.142 232.776 315.142 227.217 Z  M 332.473 164.76 L 332.473 164.76 L 332.473 164.76 Q 330.293 164.76 328.222 166.395 L 328.222 166.395 L 328.222 198.55 L 334.653 195.716 L 338.032 195.716 L 338.032 172.826 L 338.032 172.826 Q 338.032 164.76 332.473 164.76 Z  M 356.78 185.143 L 356.78 182.745 L 368.77 176.205 L 368.77 176.205 Q 369.533 176.423 370.569 176.805 L 370.569 176.805 L 370.569 176.805 Q 371.604 177.186 373.403 178.93 L 373.403 178.93 L 373.403 178.93 Q 375.201 180.674 375.201 182.854 L 375.201 182.854 L 375.201 182.854 Q 375.746 182.636 380.379 179.421 L 380.379 179.421 L 380.379 179.421 Q 385.011 176.205 386.319 176.205 L 386.319 176.205 L 386.319 176.205 Q 389.807 176.205 392.859 180.783 L 392.859 180.783 L 392.859 180.783 Q 395.911 185.361 395.911 189.176 L 395.911 189.176 L 395.911 194.517 L 384.684 200.839 L 382.831 199.313 L 382.831 199.313 Q 382.831 190.157 381.087 188.849 L 381.087 188.849 L 381.087 188.849 Q 379.125 187.432 375.201 187.432 L 375.201 187.432 L 375.201 222.203 L 375.201 222.203 Q 375.201 228.852 379.67 229.724 L 379.67 229.724 L 379.67 232.122 L 368.661 238.335 L 368.661 238.335 Q 366.263 237.354 364.192 235.12 L 364.192 235.12 L 364.192 235.12 Q 362.121 232.885 362.121 230.923 L 362.121 230.923 L 362.121 194.735 L 362.121 194.735 Q 362.121 189.939 360.432 187.541 L 360.432 187.541 L 360.432 187.541 Q 358.742 185.143 356.78 185.143 L 356.78 185.143 L 356.78 185.143 Z  M 437.331 190.593 L 437.331 190.593 L 437.331 221.44 L 437.331 221.44 Q 437.331 225.473 438.639 227.054 L 438.639 227.054 L 438.639 227.054 Q 439.947 228.634 442.672 229.288 L 442.672 229.288 L 442.672 231.686 L 430.791 238.335 L 430.791 238.335 Q 428.393 237.354 426.322 235.12 L 426.322 235.12 L 426.322 235.12 Q 424.251 232.885 424.251 231.032 L 424.251 231.032 L 410.626 238.335 L 410.626 238.335 Q 410.299 238.117 409.645 237.736 L 409.645 237.736 L 409.645 237.736 Q 408.991 237.354 407.411 236.101 L 407.411 236.101 L 407.411 236.101 Q 405.83 234.847 404.631 233.43 L 404.631 233.43 L 404.631 233.43 Q 401.361 229.833 401.361 225.255 L 401.361 225.255 L 401.361 207.379 L 401.361 207.379 Q 401.361 205.635 407.029 202.91 L 407.029 202.91 L 407.029 202.91 Q 412.697 200.185 418.365 198.441 L 418.365 198.441 L 424.142 196.588 L 424.142 196.588 Q 424.142 190.375 420.872 187.923 L 420.872 187.923 L 420.872 187.923 Q 417.602 185.47 408.228 185.47 L 408.228 185.47 L 408.228 182.2 L 408.228 182.2 Q 425.123 176.205 427.194 176.205 L 427.194 176.205 L 427.194 176.205 Q 430.791 176.205 434.061 180.892 L 434.061 180.892 L 434.061 180.892 Q 437.331 185.579 437.331 190.593 Z  M 414.441 221.331 L 414.441 221.331 Q 414.441 224.165 416.131 225.964 L 416.131 225.964 L 416.131 225.964 Q 417.82 227.762 419.891 227.762 L 419.891 227.762 L 419.891 227.762 Q 421.962 227.762 424.251 226.127 L 424.251 226.127 L 424.251 201.493 L 424.251 201.493 Q 421.526 202.474 420.164 203.128 L 420.164 203.128 L 420.164 203.128 Q 418.801 203.782 417.275 205.199 L 417.275 205.199 L 417.275 205.199 Q 414.441 207.815 414.441 214.246 L 414.441 214.246 L 414.441 221.331 L 414.441 221.331 Z  M 247.017 45.672 L 247.017 45.672 L 247.017 45.672 Q 259.007 38.369 260.751 38.369 L 260.751 38.369 L 260.751 38.369 Q 262.495 38.369 266.256 42.838 L 266.256 42.838 L 266.256 42.838 Q 270.016 47.307 270.016 50.904 L 270.016 50.904 L 270.016 84.803 L 270.016 84.803 Q 270.016 85.566 261.351 89.054 L 261.351 89.054 L 261.351 89.054 Q 252.685 92.542 247.017 94.286 L 247.017 94.286 L 247.017 105.295 L 247.017 105.295 Q 247.017 109.328 247.889 111.072 L 247.889 111.072 L 247.889 111.072 Q 248.761 112.816 251.486 112.816 L 251.486 112.816 L 251.486 116.195 L 229.141 125.569 L 227.397 122.081 L 227.397 122.081 Q 229.795 122.081 231.975 119.247 L 231.975 119.247 L 231.975 119.247 Q 233.937 116.522 233.937 110.963 L 233.937 110.963 L 233.937 54.501 L 233.937 54.501 Q 233.937 47.852 229.468 46.98 L 229.468 46.98 L 229.468 44.582 L 240.477 38.369 L 240.477 38.369 Q 242.657 39.241 244.837 41.53 L 244.837 41.53 L 244.837 41.53 Q 247.017 43.819 247.017 45.672 Z  M 251.268 48.833 L 251.268 48.833 L 251.268 48.833 Q 249.306 48.833 247.017 50.468 L 247.017 50.468 L 247.017 89.163 L 247.017 89.163 Q 249.851 89.163 253.339 87.365 L 253.339 87.365 L 253.339 87.365 Q 256.827 85.566 256.827 83.604 L 256.827 83.604 L 256.827 56.899 L 256.827 56.899 Q 256.827 48.833 251.268 48.833 Z  M 292.906 67.363 L 292.906 67.363 L 292.906 105.949 L 292.906 105.949 Q 292.906 112.598 297.375 113.47 L 297.375 113.47 L 297.375 115.868 L 286.366 122.081 L 286.366 122.081 Q 283.968 121.1 281.897 118.866 L 281.897 118.866 L 281.897 118.866 Q 279.826 116.631 279.826 114.669 L 279.826 114.669 L 279.826 76.083 L 279.826 76.083 Q 279.826 69.434 275.357 68.562 L 275.357 68.562 L 275.357 66.164 L 286.366 59.951 L 286.366 59.951 Q 288.764 60.932 290.835 63.167 L 290.835 63.167 L 290.835 63.167 Q 292.906 65.401 292.906 67.363 Z  M 298.465 68.889 L 298.465 66.491 L 310.455 59.951 L 310.455 59.951 Q 311.218 60.169 312.254 60.551 L 312.254 60.551 L 312.254 60.551 Q 313.289 60.932 315.088 62.676 L 315.088 62.676 L 315.088 62.676 Q 316.886 64.42 316.886 66.6 L 316.886 66.6 L 316.886 66.6 Q 317.431 66.382 322.064 63.167 L 322.064 63.167 L 322.064 63.167 Q 326.696 59.951 328.004 59.951 L 328.004 59.951 L 328.004 59.951 Q 331.492 59.951 334.544 64.529 L 334.544 64.529 L 334.544 64.529 Q 337.596 69.107 337.596 72.922 L 337.596 72.922 L 337.596 78.263 L 326.369 84.585 L 324.516 83.059 L 324.516 83.059 Q 324.516 73.903 322.772 72.595 L 322.772 72.595 L 322.772 72.595 Q 320.81 71.178 316.886 71.178 L 316.886 71.178 L 316.886 105.949 L 316.886 105.949 Q 316.886 112.598 321.355 113.47 L 321.355 113.47 L 321.355 115.868 L 310.346 122.081 L 310.346 122.081 Q 307.948 121.1 305.877 118.866 L 305.877 118.866 L 305.877 118.866 Q 303.806 116.631 303.806 114.669 L 303.806 114.669 L 303.806 78.481 L 303.806 78.481 Q 303.806 73.685 302.117 71.287 L 302.117 71.287 L 302.117 71.287 Q 300.427 68.889 298.465 68.889 L 298.465 68.889 L 298.465 68.889 Z  M 358.306 45.672 L 358.306 45.672 L 358.306 105.949 L 358.306 105.949 Q 358.306 112.598 362.775 113.47 L 362.775 113.47 L 362.775 115.868 L 351.766 122.081 L 351.766 122.081 Q 349.368 121.1 347.297 118.866 L 347.297 118.866 L 347.297 118.866 Q 345.226 116.631 345.226 114.669 L 345.226 114.669 L 345.226 54.392 L 345.226 54.392 Q 345.226 47.743 340.757 46.871 L 340.757 46.871 L 340.757 44.473 L 351.766 38.26 L 351.766 38.26 Q 354.164 39.241 356.235 41.476 L 356.235 41.476 L 356.235 41.476 Q 358.306 43.71 358.306 45.672 Z  M 402.996 74.339 L 402.996 74.339 L 402.996 105.186 L 402.996 105.186 Q 402.996 109.219 404.304 110.8 L 404.304 110.8 L 404.304 110.8 Q 405.612 112.38 408.337 113.034 L 408.337 113.034 L 408.337 115.432 L 396.456 122.081 L 396.456 122.081 Q 394.058 121.1 391.987 118.866 L 391.987 118.866 L 391.987 118.866 Q 389.916 116.631 389.916 114.778 L 389.916 114.778 L 376.291 122.081 L 376.291 122.081 Q 375.964 121.863 375.31 121.482 L 375.31 121.482 L 375.31 121.482 Q 374.656 121.1 373.076 119.847 L 373.076 119.847 L 373.076 119.847 Q 371.495 118.593 370.296 117.176 L 370.296 117.176 L 370.296 117.176 Q 367.026 113.579 367.026 109.001 L 367.026 109.001 L 367.026 91.125 L 367.026 91.125 Q 367.026 89.381 372.694 86.656 L 372.694 86.656 L 372.694 86.656 Q 378.362 83.931 384.03 82.187 L 384.03 82.187 L 389.807 80.334 L 389.807 80.334 Q 389.807 74.121 386.537 71.669 L 386.537 71.669 L 386.537 71.669 Q 383.267 69.216 373.893 69.216 L 373.893 69.216 L 373.893 65.946 L 373.893 65.946 Q 390.788 59.951 392.859 59.951 L 392.859 59.951 L 392.859 59.951 Q 396.456 59.951 399.726 64.638 L 399.726 64.638 L 399.726 64.638 Q 402.996 69.325 402.996 74.339 Z  M 380.106 105.077 L 380.106 105.077 Q 380.106 107.911 381.796 109.71 L 381.796 109.71 L 381.796 109.71 Q 383.485 111.508 385.556 111.508 L 385.556 111.508 L 385.556 111.508 Q 387.627 111.508 389.916 109.873 L 389.916 109.873 L 389.916 85.239 L 389.916 85.239 Q 387.191 86.22 385.829 86.874 L 385.829 86.874 L 385.829 86.874 Q 384.466 87.528 382.94 88.945 L 382.94 88.945 L 382.94 88.945 Q 380.106 91.561 380.106 97.992 L 380.106 97.992 L 380.106 105.077 L 380.106 105.077 Z  M 413.896 114.669 L 413.896 114.669 L 413.896 77.718 L 413.896 77.718 Q 413.896 74.121 412.37 71.505 L 412.37 71.505 L 412.37 71.505 Q 410.844 68.889 408.555 68.889 L 408.555 68.889 L 408.555 66.491 L 408.555 66.491 Q 409.318 66.382 420.436 59.842 L 420.436 59.842 L 420.436 59.842 Q 421.199 60.06 422.289 60.442 L 422.289 60.442 L 422.289 60.442 Q 423.379 60.823 425.178 62.567 L 425.178 62.567 L 425.178 62.567 Q 426.976 64.311 426.976 66.6 L 426.976 66.6 L 426.976 66.6 Q 427.63 66.273 430.682 64.529 L 430.682 64.529 L 430.682 64.529 Q 438.748 59.951 440.274 59.951 L 440.274 59.951 L 440.274 59.951 Q 443.762 59.951 446.814 64.529 L 446.814 64.529 L 446.814 64.529 Q 449.866 69.107 449.866 72.922 L 449.866 72.922 L 449.866 105.949 L 449.866 105.949 Q 449.866 111.944 455.207 113.034 L 455.207 113.034 L 455.207 115.432 L 443.326 122.081 L 443.326 122.081 Q 440.928 121.1 438.857 118.866 L 438.857 118.866 L 438.857 118.866 Q 436.786 116.631 436.786 114.669 L 436.786 114.669 L 436.786 83.059 L 436.786 83.059 Q 436.786 76.955 435.424 73.74 L 435.424 73.74 L 435.424 73.74 Q 434.061 70.524 430.573 70.524 L 430.573 70.524 L 426.976 71.178 L 426.976 105.949 L 426.976 105.949 Q 426.976 112.598 431.445 113.47 L 431.445 113.47 L 431.445 115.868 L 420.436 122.081 L 420.436 122.081 Q 418.038 121.1 415.967 118.866 L 415.967 118.866 L 415.967 118.866 Q 413.896 116.631 413.896 114.669 Z  M 470.794 48.615 L 473.846 48.615 L 473.846 61.586 L 479.405 61.586 L 478.315 66.927 L 473.846 66.927 L 473.846 105.949 L 473.846 105.949 Q 473.846 112.598 478.315 113.47 L 478.315 113.47 L 478.315 115.868 L 467.306 122.081 L 467.306 122.081 Q 464.908 121.1 462.837 118.866 L 462.837 118.866 L 462.837 118.866 Q 460.766 116.631 460.766 114.669 L 460.766 114.669 L 460.766 67.036 L 456.297 67.036 L 457.387 62.458 L 457.387 62.458 Q 460.657 62.458 465.29 58.044 L 465.29 58.044 L 465.29 58.044 Q 469.922 53.629 470.794 48.615 L 470.794 48.615 L 470.794 48.615 Z  M 518.536 74.339 L 518.536 74.339 L 518.536 105.186 L 518.536 105.186 Q 518.536 109.219 519.844 110.8 L 519.844 110.8 L 519.844 110.8 Q 521.152 112.38 523.877 113.034 L 523.877 113.034 L 523.877 115.432 L 511.996 122.081 L 511.996 122.081 Q 509.598 121.1 507.527 118.866 L 507.527 118.866 L 507.527 118.866 Q 505.456 116.631 505.456 114.778 L 505.456 114.778 L 491.831 122.081 L 491.831 122.081 Q 491.504 121.863 490.85 121.482 L 490.85 121.482 L 490.85 121.482 Q 490.196 121.1 488.616 119.847 L 488.616 119.847 L 488.616 119.847 Q 487.035 118.593 485.836 117.176 L 485.836 117.176 L 485.836 117.176 Q 482.566 113.579 482.566 109.001 L 482.566 109.001 L 482.566 91.125 L 482.566 91.125 Q 482.566 89.381 488.234 86.656 L 488.234 86.656 L 488.234 86.656 Q 493.902 83.931 499.57 82.187 L 499.57 82.187 L 505.347 80.334 L 505.347 80.334 Q 505.347 74.121 502.077 71.669 L 502.077 71.669 L 502.077 71.669 Q 498.807 69.216 489.433 69.216 L 489.433 69.216 L 489.433 65.946 L 489.433 65.946 Q 506.328 59.951 508.399 59.951 L 508.399 59.951 L 508.399 59.951 Q 511.996 59.951 515.266 64.638 L 515.266 64.638 L 515.266 64.638 Q 518.536 69.325 518.536 74.339 Z  M 495.646 105.077 L 495.646 105.077 Q 495.646 107.911 497.336 109.71 L 497.336 109.71 L 497.336 109.71 Q 499.025 111.508 501.096 111.508 L 501.096 111.508 L 501.096 111.508 Q 503.167 111.508 505.456 109.873 L 505.456 109.873 L 505.456 85.239 L 505.456 85.239 Q 502.731 86.22 501.369 86.874 L 501.369 86.874 L 501.369 86.874 Q 500.006 87.528 498.48 88.945 L 498.48 88.945 L 498.48 88.945 Q 495.646 91.561 495.646 97.992 L 495.646 97.992 L 495.646 105.077 L 495.646 105.077 Z " fill-rule="evenodd" fill="rgb(255,255,255)"/><g id="Group"><path d=" M 231.613 166.102 L 204.306 173.72 L 181.55 112.775 L 208.857 105.156 L 231.613 166.102 Z " fill="rgb(0,188,212)"/><path d=" M 201.917 140.741 L 190.529 110.276 L 181.55 112.775 L 204.306 173.72 L 213.304 171.206 L 201.917 140.741 Z " fill="rgb(0,151,167)"/><path d=" M 200.287 162.979 L 197.57 155.688 L 224.823 147.906 L 227.54 155.212 L 200.287 162.979 Z  M 185.3 122.804 L 188.022 130.11 L 215.22 122.179 L 212.484 114.873 L 185.3 122.804 Z " fill="rgb(77,208,225)"/><path d=" M 188.022 130.106 L 187.112 127.668 L 185.3 122.804 L 194.243 120.199 L 196.965 127.489 L 188.022 130.106 Z  M 206.545 153.128 L 197.57 155.688 L 200.305 162.979 L 209.285 160.419 L 206.545 153.128 Z " fill="rgb(0,188,212)"/></g></g></svg>